#N canvas 354 134 1075 535 10;
#X text 330 -2 attack;
#X text 728 6 decay;
#X text 905 52 sustain;
#X text 967 52 release;
#X obj 725 32 inlet;
#X obj 912 77 inlet;
#X obj 975 78 inlet;
#X obj 331 25 inlet;
#X obj 770 31 inlet;
#X text 783 6 %;
#X msg 475 164 set 1 \$1;
#X msg 726 165 set \$1 \$2;
#X obj 726 141 pack f f;
#X obj 769 117 t b f, f 6;
#X msg 348 181 bang;
#X msg 417 230 1 250;
#X obj 535 164 delay 1000;
#X text 414 164 montée A;
#X msg 566 230 0.8 250;
#X text 547 232 D;
#X obj 638 231 delay 1000;
#X text 401 230 A, f 2;
#X text 501 189 déclenchement D;
#X text 644 256 déclenchement S;
#X obj 766 271 delay 1000;
#X text 772 296 déclenchement R;
#X msg 911 246 set 0 \$1;
#X msg 766 342 0 250;
#X text 751 343 R;
#X obj 531 432 line;
#X obj 170 24 inlet;
#X obj 531 459 outlet;
#X text 102 112 A, f 2;
#X floatatom 118 112 5 0 0 0 - - -, f 5;
#X floatatom 118 129 5 0 0 0 - - -, f 5;
#X floatatom 118 146 5 0 0 0 - - -, f 5;
#X floatatom 118 163 5 0 0 0 - - -, f 5;
#X floatatom 174 128 5 0 1000 0 - - -, f 5;
#X text 102 129 D, f 2;
#X text 102 146 S, f 2;
#X text 102 162 R, f 2;
#X text 158 128 %, f 2;
#X msg 261 214 0.8;
#X obj 261 191 loadbang;
#X obj 399 278 bng 15 250 50 0 empty empty empty 17 7 0 10 -262144
-1 -1;
#X obj 496 274 bng 15 250 50 0 empty empty empty 17 7 0 10 -262144
-1 -1;
#X obj 732 394 bng 15 250 50 0 empty empty empty 17 7 0 10 -262144
-1 -1;
#X obj 330 298 bng 15 250 50 0 empty empty empty 17 7 0 10 -262144
-1 -1;
#X obj 330 298 bng 15 250 50 0 empty empty empty 17 7 0 10 -262144
-1 -1;
#X obj 330 298 bng 15 250 50 0 empty empty empty 17 7 0 10 -262144
-1 -1;
#X text 155 5 déclenchement;
#X connect 4 0 34 0;
#X connect 5 0 35 0;
#X connect 6 0 36 0;
#X connect 7 0 33 0;
#X connect 8 0 37 0;
#X connect 10 0 15 0;
#X connect 11 0 18 0;
#X connect 12 0 11 0;
#X connect 13 0 12 0;
#X connect 13 1 12 1;
#X connect 14 0 15 0;
#X connect 14 0 16 0;
#X connect 15 0 29 0;
#X connect 15 0 44 0;
#X connect 16 0 18 0;
#X connect 16 0 20 0;
#X connect 18 0 29 0;
#X connect 18 0 45 0;
#X connect 20 0 24 0;
#X connect 24 0 27 0;
#X connect 26 0 27 0;
#X connect 27 0 29 0;
#X connect 27 0 46 0;
#X connect 29 0 31 0;
#X connect 30 0 14 0;
#X connect 33 0 10 0;
#X connect 33 0 16 1;
#X connect 34 0 13 0;
#X connect 34 0 20 1;
#X connect 35 0 24 1;
#X connect 36 0 26 0;
#X connect 37 0 12 0;
#X connect 42 0 37 0;
#X connect 43 0 42 0;
#X coords 0 -1 1 1 120 80 1 100 100;
