#N canvas 211 379 1102 455 10;
#X obj 262 172 f;
#X obj 235 120 t b b;
#X floatatom 235 238 5 0 0 0 - - -, f 5;
#X msg 294 152 0;
#X obj 294 129 loadbang;
#X obj 148 144 bng 15 250 50 0 empty empty empty 17 7 0 10 -262144
-1 -1;
#X obj 235 204 expr $f2 - 1;
#X obj 235 261 > 0;
#X floatatom 148 130 5 0 0 0 - - -, f 5;
#X floatatom 148 116 5 0 0 0 - - -, f 5;
#X text 126 115 max;
#X text 102 129 current;
#X obj 235 88 inlet;
#X text 114 144 reset;
#X obj 281 290 outlet;
#X obj 148 160 tgl 15 0 empty empty empty 17 7 0 10 -262144 -1 -1 0
1;
#X text 114 160 state;
#X msg 197 133 1, f 2;
#X obj 322 88 inlet;
#X obj 370 276 outlet;
#X text 236 65 bang;
#X text 101 30 compteur \, coupe l'interrupteur une fois le nombre
max de bang donnés, f 71;
#X text 333 67 bang de reset;
#X text 417 277 bang de reset;
#X text 255 315 signal ouvert/fermé;
#X obj 542 89 inlet;
#X obj 542 287 outlet;
#X obj 542 203 spigot;
#X text 543 66 data en entrée;
#X text 552 312 data en sortie;
#X obj 688 296 outlet;
#X obj 748 296 outlet;
#X text 687 321 max;
#X text 754 320 current;
#X obj 455 87 inlet;
#X text 452 68 max;
#X connect 0 0 6 1;
#X connect 0 0 8 0;
#X connect 1 0 6 0;
#X connect 1 1 0 0;
#X connect 2 0 7 0;
#X connect 3 0 0 0;
#X connect 4 0 3 0;
#X connect 4 0 15 0;
#X connect 5 0 9 0;
#X connect 6 0 0 0;
#X connect 6 0 2 0;
#X connect 7 0 14 0;
#X connect 7 0 15 0;
#X connect 8 0 31 0;
#X connect 9 0 0 0;
#X connect 9 0 17 0;
#X connect 9 0 30 0;
#X connect 12 0 1 0;
#X connect 15 0 27 1;
#X connect 17 0 15 0;
#X connect 17 0 14 0;
#X connect 18 0 5 0;
#X connect 18 0 19 0;
#X connect 25 0 27 0;
#X connect 27 0 26 0;
#X connect 34 0 9 0;
#X coords 0 -1 1 1 80 75 1 100 100;
