#N canvas 423 179 682 621 10;
#X obj 341 60 pack f f f;
#X obj 341 84 route 0;
#X obj 341 109 unpack f f;
#X floatatom 366 8 5 0 0 0 - - -, f 5;
#X floatatom 415 13 5 0 0 0 - - -, f 5;
#X obj 341 148 list append 1 2;
#X obj 454 129 bng 15 250 50 0 empty empty empty 17 7 0 10 -262144
-1 -1;
#X obj 413 198 list trim 2;
#X obj 413 229 unpack f f;
#X obj 410 269 expr $f1+$f2;
#X obj 437 98 list;
#X obj 213 244 cmax;
#X obj 352 177 t l b;
#X obj 355 399 spigot;
#X obj 429 372 tgl 15 0 empty empty empty 17 7 0 10 -262144 -1 -1 0
1;
#X obj 389 315 list length;
#X obj 349 281 t l l;
#X obj 389 367 ==;
#X obj 389 340 - 1;
#X obj 301 10 t b b;
#X obj 355 431 outlet;
#X floatatom 100 112 5 0 0 0 - - -, f 5;
#X obj 232 -35 inlet;
#X obj 415 -37 inlet;
#X obj 367 -39 inlet;
#X text 231 -53 bang de démarrage;
#X obj 444 440 outlet;
#X obj 135 176 - 1;
#X text 365 -56 n1, f 4;
#X text 413 -55 n2;
#X obj 479 -37 inlet;
#X text 483 -52 taille de la liste;
#X connect 0 0 1 0;
#X connect 1 0 2 0;
#X connect 2 0 5 0;
#X connect 2 1 5 1;
#X connect 3 0 0 1;
#X connect 4 0 0 2;
#X connect 5 0 10 0;
#X connect 5 0 12 0;
#X connect 6 0 5 1;
#X connect 7 0 8 0;
#X connect 8 0 9 0;
#X connect 8 1 9 1;
#X connect 9 0 11 3;
#X connect 10 0 5 1;
#X connect 11 2 5 0;
#X connect 11 3 17 1;
#X connect 11 3 26 0;
#X connect 12 0 7 0;
#X connect 12 0 16 0;
#X connect 12 1 11 0;
#X connect 13 0 20 0;
#X connect 14 0 13 1;
#X connect 15 0 18 0;
#X connect 16 0 13 0;
#X connect 16 1 15 0;
#X connect 17 0 14 0;
#X connect 18 0 17 0;
#X connect 19 0 0 0;
#X connect 19 1 11 1;
#X connect 21 0 27 0;
#X connect 22 0 19 0;
#X connect 23 0 3 0;
#X connect 24 0 4 0;
#X connect 27 0 11 2;
#X connect 30 0 21 0;
#X coords 0 -1 1 1 60 30 1 100 100;
