#N canvas 552 239 753 588 10;
#X obj 88 167 adsr;
#X obj 109 143 unpack f f f f f;
#X obj 56 299 *~;
#X obj 57 324 *~;
#X obj 88 274 f;
#X obj 88 27 inlet;
#X obj 241 193 inlet;
#X text 91 9 déclenchement;
#X text 169 113 paramètres adsr;
#X text 248 175 fréquence en Hz;
#X obj 335 251 inlet;
#X text 388 251 master;
#X obj 58 359 outlet~;
#X text 123 364 signal en sortie;
#X obj 109 119 inlet;
#X obj 37 274 phasor~;
#X obj 493 36 inlet;
#X text 513 14 actif/inactif;
#X obj 468 73 tgl 15 0 empty empty empty 17 7 0 10 -262144 -1 -1 0
1;
#X obj 88 73 spigot;
#X connect 0 0 4 0;
#X connect 1 0 0 1;
#X connect 1 1 0 2;
#X connect 1 2 0 3;
#X connect 1 3 0 4;
#X connect 1 4 0 5;
#X connect 2 0 3 0;
#X connect 3 0 12 0;
#X connect 4 0 2 1;
#X connect 5 0 19 0;
#X connect 6 0 15 0;
#X connect 10 0 3 1;
#X connect 14 0 1 0;
#X connect 15 0 2 0;
#X connect 16 0 18 0;
#X connect 18 0 19 1;
#X connect 19 0 0 0;
