#N canvas 564 199 857 602 10;
#X obj 109 72 inlet;
#X obj 251 74 inlet;
#X obj 109 196 bng 15 250 50 0 empty empty empty 17 7 0 10 -262144
-1 -1;
#X obj 254 108 unpack f f f f;
#X obj 187 72 inlet;
#X text 186 48 delay;
#X text 267 50 notes;
#X obj 124 349 route 1 2 3 4 5 6 7 8;
#X obj 160 212 delay 100;
#X obj 211 234 delay 100;
#X obj 263 261 delay 100;
#X obj 109 308 +;
#X obj 109 283 0;
#X obj 131 283 f;
#X obj 160 308 +;
#X obj 160 283 0;
#X obj 182 283 f;
#X obj 211 308 +;
#X obj 211 283 0;
#X obj 233 283 f;
#X obj 262 308 +;
#X obj 262 283 0;
#X obj 284 283 f;
#X obj 64 426 s n1-0;
#X obj 120 426 s n2-0;
#X obj 176 426 s n3-0;
#X obj 232 426 s n4-0;
#X obj 288 426 s n5-0;
#X obj 344 426 s n6-0;
#X obj 400 426 s n7-0;
#X obj 456 426 s n8-0;
#X connect 0 0 2 0;
#X connect 1 0 3 0;
#X connect 2 0 8 0;
#X connect 2 0 12 0;
#X connect 3 0 13 0;
#X connect 3 1 16 0;
#X connect 3 2 19 0;
#X connect 3 3 22 0;
#X connect 4 0 8 1;
#X connect 4 0 9 1;
#X connect 4 0 10 1;
#X connect 7 0 23 0;
#X connect 7 1 24 0;
#X connect 7 2 25 0;
#X connect 7 3 26 0;
#X connect 7 4 27 0;
#X connect 7 5 28 0;
#X connect 7 6 29 0;
#X connect 7 7 30 0;
#X connect 8 0 9 0;
#X connect 8 0 15 0;
#X connect 9 0 10 0;
#X connect 9 0 18 0;
#X connect 10 0 21 0;
#X connect 11 0 7 0;
#X connect 12 0 11 0;
#X connect 13 0 11 1;
#X connect 14 0 7 0;
#X connect 15 0 14 0;
#X connect 16 0 14 1;
#X connect 17 0 7 0;
#X connect 18 0 17 0;
#X connect 19 0 17 1;
#X connect 20 0 7 0;
#X connect 21 0 20 0;
#X connect 22 0 20 1;
