#N canvas 548 282 715 522 10;
#X obj 159 157 -;
#X floatatom 159 180 5 0 0 0 - - -, f 5;
#X obj 159 276 / 3;
#X obj 159 205 expr $f1/3*2;
#X obj 159 230 +;
#X obj 159 298 +;
#X obj 118 101 inlet;
#X obj 199 102 inlet;
#X text 197 77 fréquence précédente ou zéro;
#X text 98 77 fréquence;
#X obj 197 259 outlet;
#X obj 251 346 outlet;
#X text 249 256 fréquence intermédiaire 2/3;
#X text 302 344 fréquence intermédiaire 1/3;
#X text 94 22 À partir de deux valeur vb1 et vb2 \, calcule deux intermédiaires
vi1 et vi2;
#X connect 0 0 1 0;
#X connect 1 0 3 0;
#X connect 1 0 2 0;
#X connect 2 0 5 0;
#X connect 3 0 4 0;
#X connect 4 0 10 0;
#X connect 5 0 11 0;
#X connect 6 0 0 0;
#X connect 7 0 0 1;
#X connect 7 0 4 1;
#X connect 7 0 5 1;
