#N canvas 267 147 1082 676 10;
#N canvas 55 172 1006 667 controleur 1;
#N canvas 328 162 1219 818 nK2 0;
#X floatatom 31 72 5 0 0 0 - - -, f 5;
#X floatatom 109 34 5 0 0 0 - - -, f 5;
#X floatatom 69 52 5 0 0 0 - - -, f 5;
#X obj 52 8 ctlin;
#X obj 31 97 pack f f;
#X text 112 53 bouton/potentiomètre;
#X text 75 73 valeur;
#X obj 32 548 send nK2-slider-1;
#X obj 49 531 send nK2-slider-2;
#X obj 67 514 send nK2-slider-3;
#X obj 85 497 send nK2-slider-4;
#X obj 102 480 send nK2-slider-5;
#X obj 120 463 send nK2-slider-6;
#X obj 138 446 send nK2-slider-7;
#X obj 155 429 send nK2-slider-8;
#X obj 173 548 send nK2-potentio-1;
#X obj 191 531 send nK2-potentio-2;
#X obj 209 514 send nK2-potentio-3;
#X obj 226 497 send nK2-potentio-4;
#X obj 244 480 send nK2-potentio-5;
#X obj 262 463 send nK2-potentio-6;
#X obj 279 446 send nK2-potentio-7;
#X obj 297 429 send nK2-potentio-8;
#X obj 315 548 send nK2-S-1;
#X obj 333 531 send nK2-S-2;
#X obj 350 514 send nK2-S-3;
#X obj 368 497 send nK2-S-4;
#X obj 386 480 send nK2-S-5;
#X obj 403 463 send nK2-S-6;
#X obj 421 446 send nK2-S-7;
#X obj 439 429 send nK2-S-8;
#X text 85 111 sliders = 0 à 7 \, potentios = 16 à 23;
#X text 330 111 S = 32 à 39 \, R = 48 à 55;
#X obj 456 548 send nK2-M-1;
#X obj 474 531 send nK2-M-2;
#X obj 492 514 send nK2-M-3;
#X obj 510 497 send nK2-M-4;
#X obj 527 480 send nK2-M-5;
#X obj 545 463 send nK2-M-6;
#X obj 563 446 send nK2-M-7;
#X obj 580 429 send nK2-M-8;
#X obj 598 548 send nK2-R-1;
#X obj 616 531 send nK2-R-2;
#X obj 634 514 send nK2-R-3;
#X obj 651 497 send nK2-R-4;
#X obj 669 480 send nK2-R-5;
#X obj 687 463 send nK2-R-6;
#X obj 704 446 send nK2-R-7;
#X obj 722 429 send nK2-R-8;
#X obj 32 142 route 0 1 2 3 4 5 6 7 16 17 18 19 20 21 22 23 32 33 34
35 36 37 38 39 48 49 50 51 52 53 54 55 64 65 66 67 68 69 70 71 58 59
46 60 61 62 43 44 42 41 45, f 151;
#X obj 740 543 send nK2-track-previous;
#X obj 757 526 send nK2-track-next;
#X obj 775 509 send nK2-cycle;
#X obj 793 492 send nK2-marker-set;
#X obj 811 475 send nK2-marker-previous;
#X obj 828 458 send nK2-marker-next;
#X obj 846 430 send nK2-backward;
#X obj 864 413 send nK2-forward;
#X obj 881 396 send nK2-stop;
#X obj 899 379 send nK2-play;
#X obj 917 362 send nK2-record;
#X obj 43 593 r nK2-slider-1;
#X obj 32 697 nK2-multi-in;
#X obj 32 573 r nK2-potentio-1;
#X obj 54 613 r nK2-S-1;
#X obj 65 633 r nK2-M-1;
#X obj 77 653 r nK2-R-1;
#X obj 32 723 s u1;
#X obj 151 697 nK2-multi-in;
#X obj 151 723 s u2;
#X obj 151 573 r nK2-potentio-2;
#X obj 162 593 r nK2-slider-2;
#X obj 173 613 r nK2-S-2;
#X obj 184 633 r nK2-M-2;
#X obj 196 653 r nK2-R-2;
#X obj 269 697 nK2-multi-in;
#X obj 391 697 nK2-multi-in;
#X obj 518 697 nK2-multi-in;
#X obj 269 573 r nK2-potentio-3;
#X obj 280 593 r nK2-slider-3;
#X obj 291 613 r nK2-S-3;
#X obj 302 633 r nK2-M-3;
#X obj 314 653 r nK2-R-3;
#X obj 269 723 s u3;
#X obj 391 573 r nK2-potentio-4;
#X obj 402 593 r nK2-slider-4;
#X obj 413 613 r nK2-S-4;
#X obj 424 633 r nK2-M-4;
#X obj 436 653 r nK2-R-4;
#X obj 391 723 s u4;
#X obj 518 573 r nK2-potentio-5;
#X obj 529 593 r nK2-slider-5;
#X obj 540 613 r nK2-S-5;
#X obj 551 633 r nK2-M-5;
#X obj 563 653 r nK2-R-5;
#X obj 629 701 nK2-multi-in;
#X obj 739 697 nK2-multi-in;
#X obj 849 700 nK2-multi-in;
#X obj 629 577 r nK2-potentio-6;
#X obj 640 597 r nK2-slider-6;
#X obj 651 617 r nK2-S-6;
#X obj 662 637 r nK2-M-6;
#X obj 674 657 r nK2-R-6;
#X obj 518 723 s u5;
#X obj 629 727 s u6;
#X obj 739 573 r nK2-potentio-7;
#X obj 750 593 r nK2-slider-7;
#X obj 761 613 r nK2-S-7;
#X obj 772 633 r nK2-M-7;
#X obj 784 653 r nK2-R-7;
#X obj 739 723 s u7;
#X obj 849 576 r nK2-potentio-8;
#X obj 860 596 r nK2-slider-8;
#X obj 871 616 r nK2-S-8;
#X obj 882 636 r nK2-M-8;
#X obj 894 656 r nK2-R-8;
#X obj 849 726 s u8;
#X connect 0 0 4 1;
#X connect 2 0 4 0;
#X connect 3 0 0 0;
#X connect 3 1 2 0;
#X connect 3 2 1 0;
#X connect 4 0 49 0;
#X connect 49 0 7 0;
#X connect 49 1 8 0;
#X connect 49 2 9 0;
#X connect 49 3 10 0;
#X connect 49 4 11 0;
#X connect 49 5 12 0;
#X connect 49 6 13 0;
#X connect 49 7 14 0;
#X connect 49 8 15 0;
#X connect 49 9 16 0;
#X connect 49 10 17 0;
#X connect 49 11 18 0;
#X connect 49 12 19 0;
#X connect 49 13 20 0;
#X connect 49 14 21 0;
#X connect 49 15 22 0;
#X connect 49 16 23 0;
#X connect 49 17 24 0;
#X connect 49 18 25 0;
#X connect 49 19 26 0;
#X connect 49 20 27 0;
#X connect 49 21 28 0;
#X connect 49 22 29 0;
#X connect 49 23 30 0;
#X connect 49 24 33 0;
#X connect 49 25 34 0;
#X connect 49 26 35 0;
#X connect 49 27 36 0;
#X connect 49 28 37 0;
#X connect 49 29 38 0;
#X connect 49 30 39 0;
#X connect 49 31 40 0;
#X connect 49 32 41 0;
#X connect 49 33 42 0;
#X connect 49 34 43 0;
#X connect 49 35 44 0;
#X connect 49 36 45 0;
#X connect 49 37 46 0;
#X connect 49 38 47 0;
#X connect 49 39 48 0;
#X connect 49 40 50 0;
#X connect 49 41 51 0;
#X connect 49 42 52 0;
#X connect 49 43 53 0;
#X connect 49 44 54 0;
#X connect 49 45 55 0;
#X connect 49 46 56 0;
#X connect 49 47 57 0;
#X connect 49 48 58 0;
#X connect 49 49 59 0;
#X connect 49 50 60 0;
#X connect 61 0 62 1;
#X connect 62 0 67 0;
#X connect 63 0 62 0;
#X connect 64 0 62 2;
#X connect 65 0 62 3;
#X connect 66 0 62 4;
#X connect 68 0 69 0;
#X connect 70 0 68 0;
#X connect 71 0 68 1;
#X connect 72 0 68 2;
#X connect 73 0 68 3;
#X connect 74 0 68 4;
#X connect 75 0 83 0;
#X connect 76 0 89 0;
#X connect 77 0 103 0;
#X connect 78 0 75 0;
#X connect 79 0 75 1;
#X connect 80 0 75 2;
#X connect 81 0 75 3;
#X connect 82 0 75 4;
#X connect 84 0 76 0;
#X connect 85 0 76 1;
#X connect 86 0 76 2;
#X connect 87 0 76 3;
#X connect 88 0 76 4;
#X connect 90 0 77 0;
#X connect 91 0 77 1;
#X connect 92 0 77 2;
#X connect 93 0 77 3;
#X connect 94 0 77 4;
#X connect 95 0 104 0;
#X connect 96 0 110 0;
#X connect 97 0 116 0;
#X connect 98 0 95 0;
#X connect 99 0 95 1;
#X connect 100 0 95 2;
#X connect 101 0 95 3;
#X connect 102 0 95 4;
#X connect 105 0 96 0;
#X connect 106 0 96 1;
#X connect 107 0 96 2;
#X connect 108 0 96 3;
#X connect 109 0 96 4;
#X connect 111 0 97 0;
#X connect 112 0 97 1;
#X connect 113 0 97 2;
#X connect 114 0 97 3;
#X connect 115 0 97 4;
#X restore 34 25 pd nK2;
#X obj 114 66 cnv 15 680 250 empty empty empty 20 12 0 14 -233017 -66577
0;
#X obj 331 162 r u1;
#X obj 387 162 r u2;
#X obj 443 162 r u3;
#X obj 499 162 r u4;
#X obj 555 162 r u5;
#X obj 611 162 r u6;
#X obj 667 162 r u7;
#X obj 723 162 r u8;
#X obj 331 179 nK2-unit;
#X obj 387 179 nK2-unit;
#X obj 499 179 nK2-unit;
#X obj 443 179 nK2-unit;
#X obj 611 179 nK2-unit;
#X obj 555 179 nK2-unit;
#X obj 723 179 nK2-unit;
#X obj 667 179 nK2-unit;
#N canvas 842 291 450 300 track 0;
#X obj 76 155 outlet;
#X obj 195 158 outlet;
#X obj 88 81 nK2-bouton;
#X obj 234 82 nK2-bouton;
#X obj 46 36 r nK2-track-previous;
#X obj 182 44 r nK2-track-next;
#X connect 2 0 0 0;
#X connect 3 0 1 0;
#X connect 4 0 2 0;
#X connect 5 0 3 0;
#X restore 131 84 pd track;
#N canvas 739 549 450 300 marker 0;
#X obj 76 155 outlet;
#X obj 157 160 outlet;
#X obj 212 158 outlet;
#X obj 88 81 nK2-bouton;
#X obj 196 84 nK2-bouton;
#X obj 264 72 nK2-bouton;
#X obj 237 25 r nK2-marker-next;
#X obj 144 46 r nK2-marker-previous;
#X obj 46 36 r nK2-marker-set;
#X connect 3 0 0 0;
#X connect 4 0 1 0;
#X connect 5 0 2 0;
#X connect 6 0 5 0;
#X connect 7 0 4 0;
#X connect 8 0 3 0;
#X restore 228 175 pd marker;
#N canvas 89 361 450 410 play 0;
#X obj 76 155 outlet;
#X obj 157 160 outlet;
#X obj 212 158 outlet;
#X obj 276 161 outlet;
#X obj 339 159 outlet;
#X obj 88 81 nK2-bouton;
#X obj 196 84 nK2-bouton;
#X obj 264 72 nK2-bouton;
#X obj 315 80 nK2-bouton;
#X obj 371 96 nK2-bouton;
#X obj 343 35 r nK2-record;
#X obj 312 12 r nK2-play;
#X obj 237 25 r nK2-stop;
#X obj 144 46 r nK2-forward;
#X obj 46 36 r nK2-backward;
#X connect 5 0 0 0;
#X connect 6 0 1 0;
#X connect 7 0 2 0;
#X connect 8 0 3 0;
#X connect 9 0 4 0;
#X connect 10 0 9 0;
#X connect 11 0 8 0;
#X connect 12 0 7 0;
#X connect 13 0 6 0;
#X connect 14 0 5 0;
#X restore 197 247 pd play;
#X obj 136 264 tgl 30 0 empty empty empty 17 7 0 10 -262144 -1 -1 0
1;
#X obj 169 264 tgl 30 0 empty empty empty 17 7 0 10 -262144 -1 -1 0
1;
#X obj 202 264 tgl 30 0 empty empty empty 17 7 0 10 -262144 -1 -1 0
1;
#X obj 235 264 tgl 30 0 empty empty empty 17 7 0 10 -262144 -1 -1 0
1;
#X obj 268 264 tgl 30 0 empty empty empty 17 7 0 10 -262144 -1 -1 0
1;
#X text 176 272 >>;
#X text 144 271 <<;
#X text 203 272 stop;
#X text 245 273 >;
#X text 277 272 o;
#X obj 210 192 tgl 30 0 empty empty empty 17 7 0 10 -262144 -1 -1 0
1;
#X obj 243 192 tgl 30 0 empty empty empty 17 7 0 10 -262144 -1 -1 0
1;
#X obj 276 192 tgl 30 0 empty empty empty 17 7 0 10 -262144 -1 -1 0
1;
#X text 215 199 set;
#X text 250 200 <;
#X text 284 200 >;
#X obj 132 117 tgl 30 0 empty empty empty 17 7 0 10 -262144 -1 -1 1
1;
#X obj 165 117 tgl 30 0 empty empty empty 17 7 0 10 -262144 -1 -1 0
1;
#X text 139 125 <;
#X text 173 125 >;
#N canvas 577 405 450 300 cycle 0;
#X obj 71 119 nK2-bouton;
#X obj 71 147 outlet;
#X obj 71 89 r nK2-cycle;
#X connect 0 0 1 0;
#X connect 2 0 0 0;
#X restore 127 179 pd cycle;
#X obj 127 196 tgl 30 0 empty empty empty 17 7 0 10 -262144 -1 -1 0
1;
#X text 123 204 cycle;
#X obj 331 526 s fibonacci-n1;
#X obj 387 549 s fibonacci-n2;
#X text 736 77 KORGI, f 9;
#X obj 341 504 s korgi-attack;
#X obj 397 479 s korgi-decay;
#X obj 565 422 s korgi-release;
#X obj 843 45 r parametres-adsr;
#X obj 363 352 s n1-1;
#X obj 352 369 s n1-0;
#X obj 374 335 s n1-2;
#X obj 453 460 s korgi-decay-ratio;
#X obj 509 441 s korgi-sustain;
#X obj 733 449 s master;
#X obj 733 421 / 127;
#X obj 430 335 s n2-2;
#X obj 419 352 s n2-1;
#X obj 408 369 s n2-0;
#X obj 486 335 s n3-2;
#X obj 475 352 s n3-1;
#X obj 464 369 s n3-0;
#X obj 542 335 s n4-2;
#X obj 531 352 s n4-1;
#X obj 520 369 s n4-0;
#X obj 598 335 s n5-2;
#X obj 587 352 s n5-1;
#X obj 576 369 s n5-0;
#X obj 654 335 s n6-2;
#X obj 643 352 s n6-1;
#X obj 632 369 s n6-0;
#X obj 710 335 s n7-2;
#X obj 699 352 s n7-1;
#X obj 688 369 s n7-0;
#X obj 766 335 s n8-2;
#X obj 755 352 s n8-1;
#X obj 744 369 s n8-0;
#X text 743 474 son master;
#X text 275 464 ADSR ->;
#X text 182 348 déclenchement notes ->;
#X obj 861 373 s delai;
#X obj 530 33 s metronome;
#X obj 51 165 route 1;
#X obj 51 195 tgl 15 0 empty empty empty 17 7 0 10 -262144 -1 -1 1
1;
#X obj 48 248 route 1;
#X obj 48 278 tgl 15 0 empty empty empty 17 7 0 10 -262144 -1 -1 0
1;
#X obj 48 298 s random;
#X obj 51 215 s touches;
#X obj 48 332 route 1;
#X obj 48 362 tgl 15 0 empty empty empty 17 7 0 10 -262144 -1 -1 0
1;
#X obj 48 382 s trig-phase;
#X obj 117 445 route 1;
#X obj 117 475 tgl 15 0 empty empty empty 17 7 0 10 -262144 -1 -1 0
1;
#X obj 117 495 s trig-random-b;
#X obj 24 125 r init;
#X msg 21 157 1;
#X connect 2 0 10 0;
#X connect 3 0 11 0;
#X connect 4 0 13 0;
#X connect 5 0 12 0;
#X connect 6 0 15 0;
#X connect 7 0 14 0;
#X connect 8 0 17 0;
#X connect 9 0 16 0;
#X connect 10 0 44 0;
#X connect 10 1 47 0;
#X connect 10 2 52 0;
#X connect 10 3 51 0;
#X connect 10 4 53 0;
#X connect 11 0 45 0;
#X connect 11 1 48 0;
#X connect 11 2 60 0;
#X connect 11 3 59 0;
#X connect 11 4 58 0;
#X connect 12 0 83 0;
#X connect 12 1 55 0;
#X connect 12 2 66 0;
#X connect 12 3 65 0;
#X connect 12 4 64 0;
#X connect 13 0 82 0;
#X connect 13 1 54 0;
#X connect 13 2 63 0;
#X connect 13 3 62 0;
#X connect 13 4 61 0;
#X connect 14 2 72 0;
#X connect 14 3 71 0;
#X connect 14 4 70 0;
#X connect 15 1 49 0;
#X connect 15 2 69 0;
#X connect 15 3 68 0;
#X connect 15 4 67 0;
#X connect 16 1 57 0;
#X connect 16 2 78 0;
#X connect 16 3 77 0;
#X connect 16 4 76 0;
#X connect 17 2 75 0;
#X connect 17 3 74 0;
#X connect 17 4 73 0;
#X connect 18 0 37 0;
#X connect 18 1 38 0;
#X connect 19 0 31 0;
#X connect 19 1 32 0;
#X connect 19 2 33 0;
#X connect 20 0 21 0;
#X connect 20 1 22 0;
#X connect 20 2 23 0;
#X connect 20 3 24 0;
#X connect 20 4 25 0;
#X connect 31 0 93 0;
#X connect 37 0 84 0;
#X connect 38 0 86 0;
#X connect 41 0 42 0;
#X connect 42 0 90 0;
#X connect 57 0 56 0;
#X connect 84 0 85 0;
#X connect 85 0 89 0;
#X connect 86 0 87 0;
#X connect 87 0 88 0;
#X connect 90 0 91 0;
#X connect 91 0 92 0;
#X connect 93 0 94 0;
#X connect 94 0 95 0;
#X connect 96 0 97 0;
#X connect 97 0 85 0;
#X restore -55 -39 pd controleur;
#N canvas 1 120 1392 726 notes 0;
#X obj 92 129 fibonacci;
#X msg 194 112 8;
#X obj 45 47 r fibonacci-n1;
#X obj 137 47 r fibonacci-n2;
#X obj 92 113 bng 15 250 50 0 empty empty empty 17 7 0 10 -262144 -1
-1;
#X obj 92 85 t b f;
#X obj 129 85 t b f;
#X text 221 110 taille de la suite;
#X text 52 24 nombres en entrées;
#X obj 307 51 r init;
#X obj 122 191 unpack f f f f f f f f, f 206;
#X obj 10 191 s suite-fibonacci;
#X obj 1279 483 s tone-2-2;
#X obj 1279 524 s tone-2-3;
#X floatatom 1355 349 5 0 0 0 - - -, f 5;
#X obj 1391 346 s tone-1-1;
#X floatatom 1178 349 5 0 0 0 - - -, f 5;
#X obj 1214 346 s tone-2-1;
#X floatatom 1002 349 5 0 0 0 - - -, f 5;
#X obj 1038 346 s tone-3-1;
#X floatatom 650 350 5 0 0 0 - - -, f 5;
#X floatatom 826 349 5 0 0 0 - - -, f 5;
#X floatatom 474 350 5 0 0 0 - - -, f 5;
#X floatatom 298 350 5 0 0 0 - - -, f 5;
#X obj 862 346 s tone-4-1;
#X floatatom 122 350 5 0 0 0 - - -, f 5;
#X obj 686 347 s tone-5-1;
#X obj 510 347 s tone-6-1;
#X obj 334 347 s tone-7-1;
#X obj 158 347 s tone-8-1;
#X obj 423 464 s tone-7-2;
#X obj 450 486 s tone-7-3;
#X obj 423 442 tiers;
#X obj 231 427 tiers;
#X obj 231 449 s tone-8-2;
#X obj 258 471 s tone-8-3;
#X obj 1098 482 s tone-3-2;
#X obj 1098 523 s tone-3-3;
#X obj 966 486 s tone-4-2;
#X obj 966 527 s tone-4-3;
#X obj 760 482 s tone-5-2;
#X obj 760 523 s tone-5-3;
#X obj 586 489 s tone-6-2;
#X obj 586 530 s tone-6-3;
#X obj 575 463 tiers;
#X obj 751 454 tiers;
#X obj 965 462 tiers;
#X obj 1096 456 tiers;
#X obj 1289 459 tiers;
#X obj 1373 426 s tone-2-2;
#X obj 1373 467 s tone-2-3;
#X obj 1383 402 tiers;
#X obj 1428 314 loadbang;
#X msg 1407 378 0;
#X connect 0 0 11 0;
#X connect 0 0 10 0;
#X connect 1 0 0 3;
#X connect 2 0 5 0;
#X connect 3 0 6 0;
#X connect 4 0 0 0;
#X connect 5 0 4 0;
#X connect 5 1 0 1;
#X connect 6 0 4 0;
#X connect 6 1 0 2;
#X connect 9 0 1 0;
#X connect 10 0 25 0;
#X connect 10 0 33 0;
#X connect 10 1 23 0;
#X connect 10 1 32 0;
#X connect 10 1 33 1;
#X connect 10 2 22 0;
#X connect 10 2 32 1;
#X connect 10 2 44 0;
#X connect 10 3 20 0;
#X connect 10 3 44 1;
#X connect 10 3 45 0;
#X connect 10 4 21 0;
#X connect 10 4 45 1;
#X connect 10 4 46 0;
#X connect 10 5 18 0;
#X connect 10 5 46 1;
#X connect 10 5 47 0;
#X connect 10 6 16 0;
#X connect 10 6 47 1;
#X connect 10 6 48 0;
#X connect 10 7 14 0;
#X connect 10 7 48 1;
#X connect 14 0 15 0;
#X connect 14 0 51 0;
#X connect 16 0 17 0;
#X connect 18 0 19 0;
#X connect 20 0 26 0;
#X connect 21 0 24 0;
#X connect 22 0 27 0;
#X connect 23 0 28 0;
#X connect 25 0 29 0;
#X connect 32 0 30 0;
#X connect 32 1 31 0;
#X connect 33 0 34 0;
#X connect 33 1 35 0;
#X connect 44 0 42 0;
#X connect 44 1 43 0;
#X connect 45 0 40 0;
#X connect 45 1 41 0;
#X connect 46 0 38 0;
#X connect 46 1 39 0;
#X connect 47 0 36 0;
#X connect 47 1 37 0;
#X connect 48 0 12 0;
#X connect 48 1 13 0;
#X connect 51 0 49 0;
#X connect 51 1 50 0;
#X connect 52 0 53 0;
#X connect 53 0 51 1;
#X restore -42 35 pd notes;
#X obj 253 162 s init;
#X obj 253 137 bng 15 250 50 0 empty empty empty 17 7 0 10 -262144
-1 -1;
#X text 252 116 initialisation;
#N canvas 256 173 1084 726 adsr 0;
#X obj -298 468 s parametres-adsr;
#X obj -298 423 pack f f f f f;
#X obj -421 368 r korgi-attack;
#X obj -346 281 r korgi-decay;
#X obj -49 312 r korgi-release;
#X floatatom -261 94 5 0 0 0 - - -, f 5;
#X obj -261 47 loadbang;
#X obj -199 72 r korgi-adsr-multiplier;
#X obj -134 324 t b f;
#X obj -266 347 t b f;
#X obj -346 323 t b f;
#X obj -49 354 t b f;
#X obj -49 333 * 1;
#X obj -346 302 * 1;
#X obj -421 392 * 1;
#X obj -134 303 * 1;
#X text -419 22 génère la liste de paramétrage ADSR;
#X obj -256 281 r korgi-decay-ratio;
#X obj -134 282 r korgi-sustain;
#X obj -256 303 / 127;
#X msg -261 70 5;
#X connect 1 0 0 0;
#X connect 2 0 14 0;
#X connect 3 0 13 0;
#X connect 4 0 12 0;
#X connect 5 0 14 1;
#X connect 5 0 13 1;
#X connect 5 0 12 1;
#X connect 5 0 15 1;
#X connect 6 0 20 0;
#X connect 7 0 5 0;
#X connect 8 0 1 0;
#X connect 8 1 1 3;
#X connect 9 0 1 0;
#X connect 9 1 1 2;
#X connect 10 0 1 0;
#X connect 10 1 1 1;
#X connect 11 0 1 0;
#X connect 11 1 1 4;
#X connect 12 0 11 0;
#X connect 13 0 10 0;
#X connect 14 0 1 0;
#X connect 15 0 8 0;
#X connect 17 0 19 0;
#X connect 18 0 15 0;
#X connect 19 0 9 0;
#X connect 20 0 5 0;
#X restore -40 118 pd adsr;
#N canvas 10 122 1425 750 dec 0;
#X obj 81 230 r parametres-adsr;
#X obj 52 299 dac~;
#X floatatom 1353 28 5 0 0 0 - - -, f 5;
#X obj 1389 25 s tone-1-1;
#X obj 156 26 r tone-8-1;
#X obj 225 26 r tone-7-1;
#X obj 293 26 r tone-6-1;
#X obj 361 26 r tone-5-1;
#X obj 429 26 r tone-4-1;
#X obj 497 26 r tone-3-1;
#X obj 565 26 r tone-2-1;
#X obj 165 48 r tone-8-2;
#X obj 234 48 r tone-7-2;
#X obj 302 48 r tone-6-2;
#X obj 370 48 r tone-5-2;
#X obj 438 48 r tone-4-2;
#X obj 506 48 r tone-3-2;
#X obj 574 48 r tone-2-2;
#X obj 175 69 r tone-8-3;
#X obj 244 69 r tone-7-3;
#X obj 312 69 r tone-6-3;
#X obj 380 69 r tone-5-3;
#X obj 448 69 r tone-4-3;
#X obj 516 69 r tone-3-3;
#X obj 584 69 r tone-2-3;
#X obj 62 209 r n1-0;
#X obj 62 271 note-korgi;
#X obj 119 251 r master;
#X obj 110 339 r parametres-adsr;
#X obj 81 408 dac~;
#X obj 148 360 r master;
#X obj 153 453 r parametres-adsr;
#X obj 124 522 dac~;
#X obj 191 474 r master;
#X obj 91 318 r n1-1;
#X obj 134 432 r n1-2;
#X obj 255 233 r parametres-adsr;
#X obj 226 302 dac~;
#X obj 293 254 r master;
#X obj 284 342 r parametres-adsr;
#X obj 255 411 dac~;
#X obj 322 363 r master;
#X obj 327 456 r parametres-adsr;
#X obj 298 525 dac~;
#X obj 365 477 r master;
#X obj 236 212 r n2-0;
#X obj 265 321 r n2-1;
#X obj 308 435 r n2-2;
#X obj 440 235 r parametres-adsr;
#X obj 411 304 dac~;
#X obj 478 256 r master;
#X obj 469 344 r parametres-adsr;
#X obj 440 413 dac~;
#X obj 507 365 r master;
#X obj 512 458 r parametres-adsr;
#X obj 483 527 dac~;
#X obj 550 479 r master;
#X obj 626 232 r parametres-adsr;
#X obj 597 301 dac~;
#X obj 664 253 r master;
#X obj 655 341 r parametres-adsr;
#X obj 626 410 dac~;
#X obj 693 362 r master;
#X obj 698 455 r parametres-adsr;
#X obj 669 524 dac~;
#X obj 736 476 r master;
#X obj 799 238 r parametres-adsr;
#X obj 770 307 dac~;
#X obj 837 259 r master;
#X obj 828 347 r parametres-adsr;
#X obj 799 416 dac~;
#X obj 866 368 r master;
#X obj 871 461 r parametres-adsr;
#X obj 842 530 dac~;
#X obj 909 482 r master;
#X obj 977 241 r parametres-adsr;
#X obj 948 310 dac~;
#X obj 1015 262 r master;
#X obj 1006 350 r parametres-adsr;
#X obj 977 419 dac~;
#X obj 1044 371 r master;
#X obj 1049 464 r parametres-adsr;
#X obj 1020 533 dac~;
#X obj 1087 485 r master;
#X obj 1144 246 r parametres-adsr;
#X obj 1115 315 dac~;
#X obj 1182 267 r master;
#X obj 1173 355 r parametres-adsr;
#X obj 1144 424 dac~;
#X obj 1211 376 r master;
#X obj 1216 469 r parametres-adsr;
#X obj 1187 538 dac~;
#X obj 1254 490 r master;
#X obj 1314 249 r parametres-adsr;
#X obj 1285 318 dac~;
#X obj 1352 270 r master;
#X obj 1343 358 r parametres-adsr;
#X obj 1314 427 dac~;
#X obj 1381 379 r master;
#X obj 1386 472 r parametres-adsr;
#X obj 1357 541 dac~;
#X obj 1424 493 r master;
#X obj 421 214 r n3-0;
#X obj 450 323 r n3-1;
#X obj 493 437 r n3-2;
#X obj 607 211 r n4-0;
#X obj 636 320 r n4-1;
#X obj 679 434 r n4-2;
#X obj 780 217 r n5-0;
#X obj 809 326 r n5-1;
#X obj 852 440 r n5-2;
#X obj 957 220 r n6-0;
#X obj 986 329 r n6-1;
#X obj 1030 443 r n6-2;
#X obj 1125 226 r n7-0;
#X obj 1154 334 r n7-1;
#X obj 1197 448 r n7-2;
#X obj 1295 228 r n8-0;
#X obj 1324 337 r n8-1;
#X obj 1367 451 r n8-2;
#X obj 633 26 r tone-1-1;
#X obj 642 48 r tone-1-2;
#X obj 651 69 r tone-1-3;
#X obj 91 380 note-korgi;
#X obj 134 494 note-korgi;
#X obj 236 274 note-korgi;
#X obj 265 383 note-korgi;
#X obj 308 497 note-korgi;
#X obj 421 276 note-korgi;
#X obj 450 385 note-korgi;
#X obj 493 499 note-korgi;
#X obj 607 273 note-korgi;
#X obj 636 382 note-korgi;
#X obj 679 496 note-korgi;
#X obj 780 279 note-korgi;
#X obj 809 388 note-korgi;
#X obj 852 502 note-korgi;
#X obj 958 282 note-korgi;
#X obj 987 391 note-korgi;
#X obj 1030 505 note-korgi;
#X obj 1125 287 note-korgi;
#X obj 1154 396 note-korgi;
#X obj 1197 510 note-korgi;
#X obj 1295 290 note-korgi;
#X obj 1324 399 note-korgi;
#X obj 1367 513 note-korgi;
#X obj 484 603 r touches;
#X obj 459 631 tgl 15 0 empty empty empty 17 7 0 10 -262144 -1 -1 1
1;
#X connect 0 0 26 1;
#X connect 2 0 3 0;
#X connect 4 0 26 2;
#X connect 5 0 125 2;
#X connect 6 0 128 2;
#X connect 7 0 131 2;
#X connect 8 0 134 2;
#X connect 9 0 137 2;
#X connect 10 0 140 2;
#X connect 11 0 123 2;
#X connect 12 0 126 2;
#X connect 13 0 129 2;
#X connect 14 0 132 2;
#X connect 15 0 135 2;
#X connect 16 0 138 2;
#X connect 17 0 141 2;
#X connect 18 0 124 2;
#X connect 19 0 127 2;
#X connect 20 0 130 2;
#X connect 21 0 133 2;
#X connect 22 0 136 2;
#X connect 23 0 139 2;
#X connect 24 0 142 2;
#X connect 25 0 26 0;
#X connect 26 0 1 0;
#X connect 26 0 1 1;
#X connect 27 0 26 3;
#X connect 28 0 123 1;
#X connect 30 0 123 3;
#X connect 31 0 124 1;
#X connect 33 0 124 3;
#X connect 34 0 123 0;
#X connect 35 0 124 0;
#X connect 36 0 125 1;
#X connect 38 0 125 3;
#X connect 39 0 126 1;
#X connect 41 0 126 3;
#X connect 42 0 127 1;
#X connect 44 0 127 3;
#X connect 45 0 125 0;
#X connect 46 0 126 0;
#X connect 47 0 127 0;
#X connect 48 0 128 1;
#X connect 50 0 128 3;
#X connect 51 0 129 1;
#X connect 53 0 129 3;
#X connect 54 0 130 1;
#X connect 56 0 130 3;
#X connect 57 0 131 1;
#X connect 59 0 131 3;
#X connect 60 0 132 1;
#X connect 62 0 132 3;
#X connect 63 0 133 1;
#X connect 65 0 133 3;
#X connect 66 0 134 1;
#X connect 68 0 134 3;
#X connect 69 0 135 1;
#X connect 71 0 135 3;
#X connect 72 0 136 1;
#X connect 74 0 136 3;
#X connect 75 0 137 1;
#X connect 77 0 137 3;
#X connect 78 0 138 1;
#X connect 80 0 138 3;
#X connect 81 0 139 1;
#X connect 83 0 139 3;
#X connect 84 0 140 1;
#X connect 86 0 140 3;
#X connect 87 0 141 1;
#X connect 89 0 141 3;
#X connect 90 0 142 1;
#X connect 92 0 142 3;
#X connect 93 0 143 1;
#X connect 95 0 143 3;
#X connect 96 0 144 1;
#X connect 98 0 144 3;
#X connect 99 0 145 1;
#X connect 101 0 145 3;
#X connect 102 0 128 0;
#X connect 103 0 129 0;
#X connect 104 0 130 0;
#X connect 105 0 131 0;
#X connect 106 0 132 0;
#X connect 107 0 133 0;
#X connect 108 0 134 0;
#X connect 109 0 135 0;
#X connect 110 0 136 0;
#X connect 111 0 137 0;
#X connect 112 0 138 0;
#X connect 113 0 139 0;
#X connect 114 0 140 0;
#X connect 115 0 141 0;
#X connect 116 0 142 0;
#X connect 117 0 143 0;
#X connect 118 0 144 0;
#X connect 119 0 145 0;
#X connect 120 0 143 2;
#X connect 121 0 144 2;
#X connect 122 0 145 2;
#X connect 123 0 29 0;
#X connect 123 0 29 1;
#X connect 124 0 32 0;
#X connect 124 0 32 1;
#X connect 125 0 37 0;
#X connect 125 0 37 1;
#X connect 126 0 40 0;
#X connect 126 0 40 1;
#X connect 127 0 43 0;
#X connect 127 0 43 1;
#X connect 128 0 49 0;
#X connect 128 0 49 1;
#X connect 129 0 52 0;
#X connect 129 0 52 1;
#X connect 130 0 55 0;
#X connect 130 0 55 1;
#X connect 131 0 58 0;
#X connect 131 0 58 1;
#X connect 132 0 61 0;
#X connect 132 0 61 1;
#X connect 133 0 64 0;
#X connect 133 0 64 1;
#X connect 134 0 67 0;
#X connect 134 0 67 1;
#X connect 135 0 70 0;
#X connect 135 0 70 1;
#X connect 136 0 73 0;
#X connect 136 0 73 1;
#X connect 137 0 76 0;
#X connect 137 0 76 1;
#X connect 138 0 79 0;
#X connect 138 0 79 1;
#X connect 139 0 82 0;
#X connect 139 0 82 1;
#X connect 140 0 85 0;
#X connect 140 0 85 1;
#X connect 141 0 88 0;
#X connect 141 0 88 1;
#X connect 142 0 91 0;
#X connect 142 0 91 1;
#X connect 143 0 94 0;
#X connect 143 0 94 1;
#X connect 144 0 97 0;
#X connect 144 0 97 1;
#X connect 145 0 100 0;
#X connect 145 0 100 1;
#X connect 146 0 147 0;
#X connect 147 0 26 4;
#X connect 147 0 123 4;
#X connect 147 0 124 4;
#X connect 147 0 43 1;
#X connect 147 0 55 1;
#X connect 147 0 125 4;
#X connect 147 0 126 4;
#X connect 147 0 129 4;
#X connect 147 0 128 4;
#X connect 147 0 131 4;
#X connect 147 0 132 4;
#X connect 147 0 133 4;
#X connect 147 0 134 4;
#X connect 147 0 135 4;
#X connect 147 0 136 4;
#X connect 147 0 137 4;
#X connect 147 0 138 4;
#X connect 147 0 139 4;
#X connect 147 0 140 4;
#X connect 147 0 141 4;
#X connect 147 0 142 4;
#X connect 147 0 143 4;
#X connect 147 0 144 4;
#X connect 147 0 145 4;
#X restore -40 192 pd dec;
#N canvas 1 96 1150 492 harm 0;
#X obj 101 224 delay 100;
#X obj 101 246 delay 100;
#X obj 57 246 s n1-1;
#X obj 58 267 s n1-0;
#X obj 57 224 s n1-2;
#X obj 101 203 f;
#X obj 140 54 r nK2-record;
#X obj 122 71 r nK2-play;
#X obj 104 88 r nK2-stop;
#X obj 87 105 r nK2-forward;
#X obj 69 122 r nK2-backward;
#X obj 214 224 delay 100;
#X obj 214 246 delay 100;
#X obj 214 203 f;
#X obj 330 224 delay 100;
#X obj 330 246 delay 100;
#X obj 330 203 f;
#X obj 443 224 delay 100;
#X obj 443 246 delay 100;
#X obj 443 203 f;
#X obj 556 224 delay 100;
#X obj 556 246 delay 100;
#X obj 556 203 f;
#X obj 669 224 delay 100;
#X obj 669 246 delay 100;
#X obj 669 203 f;
#X obj 785 224 delay 100;
#X obj 785 246 delay 100;
#X obj 785 203 f;
#X obj 898 224 delay 100;
#X obj 898 246 delay 100;
#X obj 898 203 f;
#X obj 170 224 s n2-2;
#X obj 170 246 s n2-1;
#X obj 171 267 s n2-0;
#X obj 286 224 s n3-2;
#X obj 286 246 s n3-1;
#X obj 287 267 s n3-0;
#X obj 399 224 s n4-2;
#X obj 399 246 s n4-1;
#X obj 400 267 s n4-0;
#X obj 512 224 s n5-2;
#X obj 512 246 s n5-1;
#X obj 513 267 s n5-0;
#X obj 625 224 s n6-2;
#X obj 625 246 s n6-1;
#X obj 626 267 s n6-0;
#X obj 741 224 s n7-2;
#X obj 741 246 s n7-1;
#X obj 742 267 s n7-0;
#X obj 854 224 s n8-2;
#X obj 854 246 s n8-1;
#X obj 855 267 s n8-0;
#X obj 479 105 r nK2-marker-set;
#X obj 497 88 r nK2-marker-previous;
#X obj 514 71 r nK2-marker-next;
#X obj 992 71 f;
#X obj 1010 40 * 5;
#X obj 1010 18 r delai;
#X connect 0 0 1 0;
#X connect 0 0 2 0;
#X connect 1 0 3 0;
#X connect 5 0 0 0;
#X connect 5 0 4 0;
#X connect 6 0 22 0;
#X connect 7 0 19 0;
#X connect 8 0 16 0;
#X connect 9 0 13 0;
#X connect 10 0 5 0;
#X connect 11 0 12 0;
#X connect 11 0 33 0;
#X connect 12 0 34 0;
#X connect 13 0 11 0;
#X connect 13 0 32 0;
#X connect 14 0 15 0;
#X connect 14 0 36 0;
#X connect 15 0 37 0;
#X connect 16 0 14 0;
#X connect 16 0 35 0;
#X connect 17 0 18 0;
#X connect 17 0 39 0;
#X connect 18 0 40 0;
#X connect 19 0 17 0;
#X connect 19 0 38 0;
#X connect 20 0 21 0;
#X connect 20 0 42 0;
#X connect 21 0 43 0;
#X connect 22 0 20 0;
#X connect 22 0 41 0;
#X connect 23 0 24 0;
#X connect 23 0 45 0;
#X connect 24 0 46 0;
#X connect 25 0 23 0;
#X connect 25 0 44 0;
#X connect 26 0 27 0;
#X connect 26 0 48 0;
#X connect 27 0 49 0;
#X connect 28 0 26 0;
#X connect 28 0 47 0;
#X connect 29 0 30 0;
#X connect 29 0 51 0;
#X connect 30 0 52 0;
#X connect 31 0 29 0;
#X connect 31 0 50 0;
#X connect 53 0 25 0;
#X connect 54 0 28 0;
#X connect 55 0 31 0;
#X connect 56 0 29 1;
#X connect 56 0 30 1;
#X connect 56 0 26 1;
#X connect 56 0 27 1;
#X connect 56 0 23 1;
#X connect 56 0 24 1;
#X connect 56 0 20 1;
#X connect 56 0 21 1;
#X connect 56 0 17 1;
#X connect 56 0 18 1;
#X connect 56 0 14 1;
#X connect 56 0 15 1;
#X connect 56 0 11 1;
#X connect 56 0 12 1;
#X connect 56 0 0 1;
#X connect 56 0 1 1;
#X connect 57 0 56 0;
#X connect 58 0 57 0;
#X restore -41 349 pd harm;
#N canvas 226 264 1078 635 sequenceur 0;
#X obj 186 132 metro 1000;
#X obj 171 96 tgl 15 0 empty empty empty 17 7 0 10 -262144 -1 -1 0
1;
#X obj 206 184 bng 15 250 50 0 empty empty empty 17 7 0 10 -262144
-1 -1;
#X msg 265 95 1000;
#X obj 312 95 r metronome;
#X floatatom 296 179 5 0 0 0 - - -, f 5;
#X obj 334 130 * 20;
#X obj 207 267 select 1 2 3 4 5 6 7 8;
#X obj 207 360 select 1 2 3;
#X obj 207 386 bng 15 250 50 0 empty empty empty 17 7 0 10 -262144
-1 -1;
#X obj 230 386 bng 15 250 50 0 empty empty empty 17 7 0 10 -262144
-1 -1;
#X obj 253 386 bng 15 250 50 0 empty empty empty 17 7 0 10 -262144
-1 -1;
#X obj 207 333 random 4;
#X obj 207 240 random 9;
#X obj 230 463 s n1-1;
#X obj 219 480 s n1-0;
#X obj 241 446 s n1-2;
#X obj 297 446 s n2-2;
#X obj 286 463 s n2-1;
#X obj 275 480 s n2-0;
#X obj 353 446 s n3-2;
#X obj 342 463 s n3-1;
#X obj 331 480 s n3-0;
#X obj 409 446 s n4-2;
#X obj 398 463 s n4-1;
#X obj 387 480 s n4-0;
#X obj 465 446 s n5-2;
#X obj 454 463 s n5-1;
#X obj 443 480 s n5-0;
#X obj 521 446 s n6-2;
#X obj 510 463 s n6-1;
#X obj 499 480 s n6-0;
#X obj 577 446 s n7-2;
#X obj 566 463 s n7-1;
#X obj 555 480 s n7-0;
#X obj 633 446 s n8-2;
#X obj 622 463 s n8-1;
#X obj 611 480 s n8-0;
#X obj 207 296 bng 15 250 50 0 empty empty empty 17 7 0 10 -262144
-1 -1;
#X obj 225 296 bng 15 250 50 0 empty empty empty 17 7 0 10 -262144
-1 -1;
#X obj 244 296 bng 15 250 50 0 empty empty empty 17 7 0 10 -262144
-1 -1;
#X obj 264 296 bng 15 250 50 0 empty empty empty 17 7 0 10 -262144
-1 -1;
#X obj 284 296 bng 15 250 50 0 empty empty empty 17 7 0 10 -262144
-1 -1;
#X obj 303 296 bng 15 250 50 0 empty empty empty 17 7 0 10 -262144
-1 -1;
#X obj 322 296 bng 15 250 50 0 empty empty empty 17 7 0 10 -262144
-1 -1;
#X obj 341 296 bng 15 250 50 0 empty empty empty 17 7 0 10 -262144
-1 -1;
#X obj 360 296 bng 15 250 50 0 empty empty empty 17 7 0 10 -262144
-1 -1;
#X obj 288 360 select 1 2 3;
#X obj 288 386 bng 15 250 50 0 empty empty empty 17 7 0 10 -262144
-1 -1;
#X obj 311 386 bng 15 250 50 0 empty empty empty 17 7 0 10 -262144
-1 -1;
#X obj 334 386 bng 15 250 50 0 empty empty empty 17 7 0 10 -262144
-1 -1;
#X obj 288 333 random 4;
#X obj 369 360 select 1 2 3;
#X obj 369 386 bng 15 250 50 0 empty empty empty 17 7 0 10 -262144
-1 -1;
#X obj 392 386 bng 15 250 50 0 empty empty empty 17 7 0 10 -262144
-1 -1;
#X obj 415 386 bng 15 250 50 0 empty empty empty 17 7 0 10 -262144
-1 -1;
#X obj 369 333 random 4;
#X obj 450 360 select 1 2 3;
#X obj 450 386 bng 15 250 50 0 empty empty empty 17 7 0 10 -262144
-1 -1;
#X obj 473 386 bng 15 250 50 0 empty empty empty 17 7 0 10 -262144
-1 -1;
#X obj 496 386 bng 15 250 50 0 empty empty empty 17 7 0 10 -262144
-1 -1;
#X obj 450 333 random 4;
#X obj 533 360 select 1 2 3;
#X obj 533 386 bng 15 250 50 0 empty empty empty 17 7 0 10 -262144
-1 -1;
#X obj 556 386 bng 15 250 50 0 empty empty empty 17 7 0 10 -262144
-1 -1;
#X obj 579 386 bng 15 250 50 0 empty empty empty 17 7 0 10 -262144
-1 -1;
#X obj 533 333 random 4;
#X obj 614 360 select 1 2 3;
#X obj 614 386 bng 15 250 50 0 empty empty empty 17 7 0 10 -262144
-1 -1;
#X obj 637 386 bng 15 250 50 0 empty empty empty 17 7 0 10 -262144
-1 -1;
#X obj 660 386 bng 15 250 50 0 empty empty empty 17 7 0 10 -262144
-1 -1;
#X obj 614 333 random 4;
#X obj 695 360 select 1 2 3;
#X obj 695 386 bng 15 250 50 0 empty empty empty 17 7 0 10 -262144
-1 -1;
#X obj 718 386 bng 15 250 50 0 empty empty empty 17 7 0 10 -262144
-1 -1;
#X obj 741 386 bng 15 250 50 0 empty empty empty 17 7 0 10 -262144
-1 -1;
#X obj 695 333 random 4;
#X obj 776 360 select 1 2 3;
#X obj 776 386 bng 15 250 50 0 empty empty empty 17 7 0 10 -262144
-1 -1;
#X obj 799 386 bng 15 250 50 0 empty empty empty 17 7 0 10 -262144
-1 -1;
#X obj 822 386 bng 15 250 50 0 empty empty empty 17 7 0 10 -262144
-1 -1;
#X obj 776 333 random 4;
#X obj 145 43 r random;
#X connect 0 0 2 0;
#X connect 1 0 0 0;
#X connect 2 0 13 0;
#X connect 3 0 0 1;
#X connect 4 0 6 0;
#X connect 6 0 5 0;
#X connect 6 0 0 1;
#X connect 7 0 38 0;
#X connect 7 1 39 0;
#X connect 7 2 40 0;
#X connect 7 3 41 0;
#X connect 7 4 42 0;
#X connect 7 5 43 0;
#X connect 7 6 44 0;
#X connect 7 7 45 0;
#X connect 7 8 46 0;
#X connect 8 0 9 0;
#X connect 8 1 10 0;
#X connect 8 2 11 0;
#X connect 9 0 15 0;
#X connect 10 0 14 0;
#X connect 11 0 16 0;
#X connect 12 0 8 0;
#X connect 13 0 7 0;
#X connect 38 0 12 0;
#X connect 39 0 51 0;
#X connect 40 0 56 0;
#X connect 41 0 61 0;
#X connect 43 0 66 0;
#X connect 44 0 71 0;
#X connect 45 0 76 0;
#X connect 46 0 81 0;
#X connect 47 0 48 0;
#X connect 47 1 49 0;
#X connect 47 2 50 0;
#X connect 48 0 19 0;
#X connect 49 0 18 0;
#X connect 50 0 17 0;
#X connect 51 0 47 0;
#X connect 52 0 53 0;
#X connect 52 1 54 0;
#X connect 52 2 55 0;
#X connect 53 0 22 0;
#X connect 54 0 21 0;
#X connect 55 0 20 0;
#X connect 56 0 52 0;
#X connect 57 0 58 0;
#X connect 57 1 59 0;
#X connect 57 2 60 0;
#X connect 58 0 25 0;
#X connect 59 0 24 0;
#X connect 60 0 23 0;
#X connect 61 0 57 0;
#X connect 62 0 63 0;
#X connect 62 1 64 0;
#X connect 62 2 65 0;
#X connect 63 0 28 0;
#X connect 64 0 27 0;
#X connect 65 0 26 0;
#X connect 66 0 62 0;
#X connect 67 0 68 0;
#X connect 67 1 69 0;
#X connect 67 2 70 0;
#X connect 68 0 31 0;
#X connect 69 0 30 0;
#X connect 70 0 29 0;
#X connect 71 0 67 0;
#X connect 72 0 73 0;
#X connect 72 1 74 0;
#X connect 72 2 75 0;
#X connect 73 0 34 0;
#X connect 74 0 33 0;
#X connect 75 0 32 0;
#X connect 76 0 72 0;
#X connect 77 0 78 0;
#X connect 77 1 79 0;
#X connect 77 2 80 0;
#X connect 78 0 37 0;
#X connect 79 0 36 0;
#X connect 80 0 35 0;
#X connect 81 0 77 0;
#X connect 82 0 1 0;
#X restore -61 415 pd sequenceur;
#N canvas 1 84 1264 761 la-phaze 0;
#X obj 84 115 r parametres-adsr;
#X obj 57 184 dac~;
#X obj 119 134 r master;
#X obj 67 156 phasor-korgi;
#X obj 67 95 r n1-0;
#X obj 101 48 r tone-8-1;
#X obj 101 70 / 5;
#X obj 633 612 r trig-phase;
#X obj 640 635 tgl 15 0 empty empty empty 17 7 0 10 -262144 -1 -1 0
1;
#X obj 82 277 r parametres-adsr;
#X obj 55 346 dac~;
#X obj 117 296 r master;
#X obj 65 318 phasor-korgi;
#X obj 99 232 / 5;
#X obj 99 210 r tone-8-2;
#X obj 65 257 r n1-1;
#X obj 75 441 r parametres-adsr;
#X obj 48 510 dac~;
#X obj 110 460 r master;
#X obj 58 482 phasor-korgi;
#X obj 92 396 / 5;
#X obj 92 374 r tone-8-3;
#X obj 58 421 r n1-2;
#X obj 261 114 r parametres-adsr;
#X obj 234 183 dac~;
#X obj 296 133 r master;
#X obj 244 155 phasor-korgi;
#X obj 278 69 / 5;
#X obj 259 276 r parametres-adsr;
#X obj 232 345 dac~;
#X obj 294 295 r master;
#X obj 242 317 phasor-korgi;
#X obj 276 231 / 5;
#X obj 252 440 r parametres-adsr;
#X obj 225 509 dac~;
#X obj 287 459 r master;
#X obj 235 481 phasor-korgi;
#X obj 269 395 / 5;
#X obj 278 47 r tone-7-1;
#X obj 275 209 r tone-7-2;
#X obj 269 373 r tone-7-3;
#X obj 244 94 r n2-0;
#X obj 242 256 r n2-1;
#X obj 235 420 r n2-2;
#X obj 432 121 r parametres-adsr;
#X obj 405 190 dac~;
#X obj 467 140 r master;
#X obj 415 162 phasor-korgi;
#X obj 449 76 / 5;
#X obj 430 283 r parametres-adsr;
#X obj 403 352 dac~;
#X obj 465 302 r master;
#X obj 413 324 phasor-korgi;
#X obj 447 238 / 5;
#X obj 423 447 r parametres-adsr;
#X obj 396 516 dac~;
#X obj 458 466 r master;
#X obj 406 488 phasor-korgi;
#X obj 440 402 / 5;
#X obj 609 120 r parametres-adsr;
#X obj 582 189 dac~;
#X obj 644 139 r master;
#X obj 592 161 phasor-korgi;
#X obj 626 75 / 5;
#X obj 607 282 r parametres-adsr;
#X obj 580 351 dac~;
#X obj 642 301 r master;
#X obj 590 323 phasor-korgi;
#X obj 624 237 / 5;
#X obj 600 446 r parametres-adsr;
#X obj 573 515 dac~;
#X obj 635 465 r master;
#X obj 570 486 phasor-korgi;
#X obj 617 401 / 5;
#X obj 415 101 r n3-0;
#X obj 413 263 r n3-1;
#X obj 406 427 r n3-2;
#X obj 766 117 r parametres-adsr;
#X obj 739 186 dac~;
#X obj 801 136 r master;
#X obj 749 158 phasor-korgi;
#X obj 783 72 / 5;
#X obj 764 279 r parametres-adsr;
#X obj 737 348 dac~;
#X obj 799 298 r master;
#X obj 747 320 phasor-korgi;
#X obj 781 234 / 5;
#X obj 757 443 r parametres-adsr;
#X obj 730 512 dac~;
#X obj 792 462 r master;
#X obj 740 484 phasor-korgi;
#X obj 774 398 / 5;
#X obj 943 116 r parametres-adsr;
#X obj 916 185 dac~;
#X obj 978 135 r master;
#X obj 926 157 phasor-korgi;
#X obj 960 71 / 5;
#X obj 941 278 r parametres-adsr;
#X obj 914 347 dac~;
#X obj 976 297 r master;
#X obj 924 319 phasor-korgi;
#X obj 958 233 / 5;
#X obj 934 442 r parametres-adsr;
#X obj 907 511 dac~;
#X obj 969 461 r master;
#X obj 917 483 phasor-korgi;
#X obj 951 397 / 5;
#X obj 1114 123 r parametres-adsr;
#X obj 1087 192 dac~;
#X obj 1149 142 r master;
#X obj 1097 164 phasor-korgi;
#X obj 1131 78 / 5;
#X obj 1112 285 r parametres-adsr;
#X obj 1085 354 dac~;
#X obj 1147 304 r master;
#X obj 1095 326 phasor-korgi;
#X obj 1129 240 / 5;
#X obj 1105 449 r parametres-adsr;
#X obj 1078 518 dac~;
#X obj 1140 468 r master;
#X obj 1088 490 phasor-korgi;
#X obj 1122 404 / 5;
#X obj 1291 122 r parametres-adsr;
#X obj 1264 191 dac~;
#X obj 1326 141 r master;
#X obj 1274 163 phasor-korgi;
#X obj 1308 77 / 5;
#X obj 1289 284 r parametres-adsr;
#X obj 1262 353 dac~;
#X obj 1324 303 r master;
#X obj 1272 325 phasor-korgi;
#X obj 1306 239 / 5;
#X obj 1282 448 r parametres-adsr;
#X obj 1255 517 dac~;
#X obj 1317 467 r master;
#X obj 1265 489 phasor-korgi;
#X obj 1299 403 / 5;
#X obj 592 100 r n4-0;
#X obj 589 262 r n4-1;
#X obj 583 426 r n4-2;
#X obj 749 97 r n5-0;
#X obj 747 259 r n5-1;
#X obj 740 423 r n5-2;
#X obj 926 96 r n6-0;
#X obj 924 258 r n6-1;
#X obj 917 422 r n6-2;
#X obj 1097 103 r n7-0;
#X obj 1095 265 r n7-1;
#X obj 1087 429 r n7-2;
#X obj 1274 102 r n8-0;
#X obj 1272 264 r n8-1;
#X obj 1265 428 r n8-2;
#X obj 449 54 r tone-6-1;
#X obj 447 216 r tone-6-2;
#X obj 440 380 r tone-6-3;
#X obj 626 53 r tone-5-1;
#X obj 623 215 r tone-5-2;
#X obj 617 379 r tone-5-3;
#X obj 783 50 r tone-4-1;
#X obj 781 212 r tone-4-2;
#X obj 774 376 r tone-4-3;
#X obj 960 49 r tone-3-1;
#X obj 957 211 r tone-3-2;
#X obj 951 375 r tone-3-3;
#X obj 1131 56 r tone-2-1;
#X obj 1129 218 r tone-2-2;
#X obj 1122 382 r tone-2-3;
#X obj 1308 55 r tone-1-1;
#X obj 1305 217 r tone-1-2;
#X obj 1299 381 r tone-1-3;
#X connect 0 0 3 1;
#X connect 2 0 3 3;
#X connect 3 0 1 0;
#X connect 3 0 1 1;
#X connect 4 0 3 0;
#X connect 5 0 6 0;
#X connect 6 0 3 2;
#X connect 7 0 8 0;
#X connect 8 0 3 4;
#X connect 8 0 12 4;
#X connect 8 0 19 4;
#X connect 8 0 36 4;
#X connect 8 0 31 4;
#X connect 8 0 26 4;
#X connect 8 0 47 4;
#X connect 8 0 52 4;
#X connect 8 0 57 4;
#X connect 8 0 62 4;
#X connect 8 0 67 4;
#X connect 8 0 72 4;
#X connect 8 0 80 4;
#X connect 8 0 85 4;
#X connect 8 0 90 4;
#X connect 8 0 95 4;
#X connect 8 0 100 4;
#X connect 8 0 105 4;
#X connect 8 0 110 4;
#X connect 8 0 115 4;
#X connect 8 0 120 4;
#X connect 8 0 125 4;
#X connect 8 0 130 4;
#X connect 8 0 135 4;
#X connect 9 0 12 1;
#X connect 11 0 12 3;
#X connect 12 0 10 0;
#X connect 12 0 10 1;
#X connect 13 0 12 2;
#X connect 14 0 13 0;
#X connect 15 0 12 0;
#X connect 16 0 19 1;
#X connect 18 0 19 3;
#X connect 19 0 17 0;
#X connect 19 0 17 1;
#X connect 20 0 19 2;
#X connect 21 0 20 0;
#X connect 22 0 19 0;
#X connect 23 0 26 1;
#X connect 25 0 26 3;
#X connect 26 0 24 0;
#X connect 26 0 24 1;
#X connect 27 0 26 2;
#X connect 28 0 31 1;
#X connect 30 0 31 3;
#X connect 31 0 29 0;
#X connect 31 0 29 1;
#X connect 32 0 31 2;
#X connect 33 0 36 1;
#X connect 35 0 36 3;
#X connect 36 0 34 0;
#X connect 36 0 34 1;
#X connect 37 0 36 2;
#X connect 38 0 27 0;
#X connect 39 0 32 0;
#X connect 40 0 37 0;
#X connect 41 0 26 0;
#X connect 42 0 31 0;
#X connect 43 0 36 0;
#X connect 44 0 47 1;
#X connect 46 0 47 3;
#X connect 47 0 45 0;
#X connect 47 0 45 1;
#X connect 48 0 47 2;
#X connect 49 0 52 1;
#X connect 51 0 52 3;
#X connect 52 0 50 0;
#X connect 52 0 50 1;
#X connect 53 0 52 2;
#X connect 54 0 57 1;
#X connect 56 0 57 3;
#X connect 57 0 55 0;
#X connect 57 0 55 1;
#X connect 58 0 57 2;
#X connect 59 0 62 1;
#X connect 61 0 62 3;
#X connect 62 0 60 0;
#X connect 62 0 60 1;
#X connect 63 0 62 2;
#X connect 64 0 67 1;
#X connect 66 0 67 3;
#X connect 67 0 65 0;
#X connect 67 0 65 1;
#X connect 68 0 67 2;
#X connect 69 0 72 1;
#X connect 71 0 72 3;
#X connect 72 0 70 0;
#X connect 72 0 70 1;
#X connect 73 0 72 2;
#X connect 74 0 47 0;
#X connect 75 0 52 0;
#X connect 76 0 57 0;
#X connect 77 0 80 1;
#X connect 79 0 80 3;
#X connect 80 0 78 0;
#X connect 80 0 78 1;
#X connect 81 0 80 2;
#X connect 82 0 85 1;
#X connect 84 0 85 3;
#X connect 85 0 83 0;
#X connect 85 0 83 1;
#X connect 86 0 85 2;
#X connect 87 0 90 1;
#X connect 89 0 90 3;
#X connect 90 0 88 0;
#X connect 90 0 88 1;
#X connect 91 0 90 2;
#X connect 92 0 95 1;
#X connect 94 0 95 3;
#X connect 95 0 93 0;
#X connect 95 0 93 1;
#X connect 96 0 95 2;
#X connect 97 0 100 1;
#X connect 99 0 100 3;
#X connect 100 0 98 0;
#X connect 100 0 98 1;
#X connect 101 0 100 2;
#X connect 102 0 105 1;
#X connect 104 0 105 3;
#X connect 105 0 103 0;
#X connect 105 0 103 1;
#X connect 106 0 105 2;
#X connect 107 0 110 1;
#X connect 109 0 110 3;
#X connect 110 0 108 0;
#X connect 110 0 108 1;
#X connect 111 0 110 2;
#X connect 112 0 115 1;
#X connect 114 0 115 3;
#X connect 115 0 113 0;
#X connect 115 0 113 1;
#X connect 116 0 115 2;
#X connect 117 0 120 1;
#X connect 119 0 120 3;
#X connect 120 0 118 0;
#X connect 120 0 118 1;
#X connect 121 0 120 2;
#X connect 122 0 125 1;
#X connect 124 0 125 3;
#X connect 125 0 123 0;
#X connect 125 0 123 1;
#X connect 126 0 125 2;
#X connect 127 0 130 1;
#X connect 129 0 130 3;
#X connect 130 0 128 0;
#X connect 130 0 128 1;
#X connect 131 0 130 2;
#X connect 132 0 135 1;
#X connect 134 0 135 3;
#X connect 135 0 133 0;
#X connect 135 0 133 1;
#X connect 136 0 135 2;
#X connect 137 0 62 0;
#X connect 138 0 67 0;
#X connect 139 0 72 0;
#X connect 140 0 80 0;
#X connect 141 0 85 0;
#X connect 142 0 90 0;
#X connect 143 0 95 0;
#X connect 144 0 100 0;
#X connect 145 0 105 0;
#X connect 146 0 110 0;
#X connect 147 0 115 0;
#X connect 148 0 120 0;
#X connect 149 0 125 0;
#X connect 150 0 130 0;
#X connect 151 0 135 0;
#X connect 152 0 48 0;
#X connect 153 0 53 0;
#X connect 154 0 58 0;
#X connect 155 0 63 0;
#X connect 156 0 68 0;
#X connect 157 0 73 0;
#X connect 158 0 81 0;
#X connect 159 0 86 0;
#X connect 160 0 91 0;
#X connect 161 0 96 0;
#X connect 162 0 101 0;
#X connect 163 0 106 0;
#X connect 164 0 111 0;
#X connect 165 0 116 0;
#X connect 166 0 121 0;
#X connect 167 0 126 0;
#X connect 168 0 131 0;
#X connect 169 0 136 0;
#X restore -50 267 pd la-phaze;
#X msg 380 207 300, f 5;
#X obj 406 397 quartet;
#X obj 562 218 1 4 4 5;
#X obj 468 437 metro 1000;
#X obj 511 393 * 4;
#X obj 467 401 tgl 15 0 empty empty empty 17 7 0 10 -262144 -1 -1 0
1;
#X obj 562 198 bng 15 250 50 0 empty empty empty 17 7 0 10 -262144
-1 -1;
#X obj 563 244 bng 15 250 50 0 empty empty empty 17 7 0 10 -262144
-1 -1;
#X obj 564 287 bng 15 250 50 0 empty empty empty 17 7 0 10 -262144
-1 -1;
#X obj 565 333 bng 15 250 50 0 empty empty empty 17 7 0 10 -262144
-1 -1;
#X obj 622 198 bng 15 250 50 0 empty empty empty 17 7 0 10 -262144
-1 -1;
#X obj 623 244 bng 15 250 50 0 empty empty empty 17 7 0 10 -262144
-1 -1;
#X obj 624 287 bng 15 250 50 0 empty empty empty 17 7 0 10 -262144
-1 -1;
#X obj 625 333 bng 15 250 50 0 empty empty empty 17 7 0 10 -262144
-1 -1;
#X obj 507 34 bng 15 250 50 0 empty empty empty 17 7 0 10 -262144 -1
-1;
#X obj 506 100 route 1 2 3 4 5 6 7 8 9 10 11 12;
#X obj 678 198 bng 15 250 50 0 empty empty empty 17 7 0 10 -262144
-1 -1;
#X obj 679 244 bng 15 250 50 0 empty empty empty 17 7 0 10 -262144
-1 -1;
#X obj 680 287 bng 15 250 50 0 empty empty empty 17 7 0 10 -262144
-1 -1;
#X obj 681 333 bng 15 250 50 0 empty empty empty 17 7 0 10 -262144
-1 -1;
#X obj 506 67 random 12;
#X obj 564 308 1 6 2 4;
#X obj 563 264 1 5 1 5;
#X obj 565 353 6 4 3 1;
#X obj 622 218 1 6 3 6;
#X obj 495 -26 tgl 15 0 empty empty empty 17 7 0 10 -262144 -1 -1 0
1;
#X obj 678 218 8 7 6 5;
#X obj 679 264 5 7 3 1;
#X obj 623 264 3 6 1 3;
#X obj 624 307 1 5 7 8;
#X obj 625 353 5 1 2 4;
#X obj 680 307 1 3 5 3;
#X obj 681 353 1 2 3 5;
#X obj 496 10 metro 4800;
#X obj 445 271 * 16;
#X msg 348 242 200;
#X msg 300 266 100;
#X obj 325 3 r trig-random-b;
#X obj 360 427 bng 15 250 50 0 empty empty empty 17 7 0 10 -262144
-1 -1;
#X obj 197 314 r metronome;
#X obj 235 338 * 5;
#X obj 288 349 f;
#X text -104 -63 contrôle via Kork nanoKontrol 2;
#X text -161 11 génération des tons via des suites de fibonacci;
#X text -109 89 générations des paramètres d'ADSR;
#X text -62 165 notes via osc~;
#X text -70 243 notes via phasor~;
#X text -119 309 génération de notes utilisant les tons intermédiaires
avec un délai, f 45;
#X text -96 389 premier séquenceur aléatoire;
#X text 348 -69 second séquenceur aléatoire;
#X connect 3 0 2 0;
#X connect 10 0 11 1;
#X connect 10 0 14 0;
#X connect 10 0 44 0;
#X connect 12 0 11 2;
#X connect 13 0 48 0;
#X connect 14 0 13 1;
#X connect 15 0 13 0;
#X connect 16 0 12 0;
#X connect 17 0 32 0;
#X connect 18 0 31 0;
#X connect 19 0 33 0;
#X connect 20 0 34 0;
#X connect 21 0 38 0;
#X connect 22 0 39 0;
#X connect 23 0 40 0;
#X connect 24 0 30 0;
#X connect 25 0 16 0;
#X connect 25 1 17 0;
#X connect 25 2 18 0;
#X connect 25 3 19 0;
#X connect 25 4 20 0;
#X connect 25 5 21 0;
#X connect 25 6 22 0;
#X connect 25 7 23 0;
#X connect 25 8 26 0;
#X connect 25 9 27 0;
#X connect 25 10 28 0;
#X connect 25 11 29 0;
#X connect 26 0 36 0;
#X connect 27 0 37 0;
#X connect 28 0 41 0;
#X connect 29 0 42 0;
#X connect 30 0 25 0;
#X connect 31 0 11 2;
#X connect 32 0 11 2;
#X connect 33 0 11 2;
#X connect 34 0 11 2;
#X connect 35 0 43 0;
#X connect 36 0 11 2;
#X connect 37 0 11 2;
#X connect 38 0 11 2;
#X connect 39 0 11 2;
#X connect 40 0 11 2;
#X connect 41 0 11 2;
#X connect 42 0 11 2;
#X connect 43 0 24 0;
#X connect 44 0 43 1;
#X connect 45 0 44 0;
#X connect 45 0 14 0;
#X connect 45 0 11 1;
#X connect 46 0 11 1;
#X connect 46 0 44 0;
#X connect 46 0 14 0;
#X connect 47 0 35 0;
#X connect 47 0 15 0;
#X connect 48 0 11 0;
#X connect 49 0 50 0;
#X connect 50 0 51 0;
#X connect 51 0 11 1;
#X connect 51 0 14 0;
#X connect 51 0 43 1;
